<svg width="320" height="18" viewBox="0 0 320 18" fill="none" xmlns="http://www.w3.org/2000/svg">
<circle cx="8.96673" cy="8.96673" r="8.96673" fill="#3E2522"/>
<path d="M5.69765 9.43296L7.56571 11.301L12.2359 6.63086" stroke="#FFFFFC" stroke-width="1.12084" stroke-linecap="round" stroke-linejoin="round"/>
<rect x="17.9335" y="8.40625" width="25.2189" height="1.12084" fill="#3E2522"/>
<circle cx="51.9667" cy="8.96673" r="8.96673" fill="#3E2522"/>
<path d="M48.6977 9.43296L50.5657 11.301L55.2359 6.63086" stroke="#FFFFFC" stroke-width="1.12084" stroke-linecap="round" stroke-linejoin="round"/>
<rect x="60.9334" y="8.40625" width="25.2189" height="1.12084" fill="#3E2522"/>
<circle cx="94.9667" cy="8.96673" r="8.96673" fill="#3E2522"/>
<path d="M91.6977 9.43296L93.5657 11.301L98.2359 6.63086" stroke="#FFFFFC" stroke-width="1.12084" stroke-linecap="round" stroke-linejoin="round"/>
<rect x="103.933" y="8.40625" width="25.2189" height="1.12084" fill="#3E2522"/>
<rect x="190" y="8.40625" width="25.2189" height="1.12084" fill="#D6D6D6"/>
<rect x="233.152" y="8.40625" width="25.2189" height="1.12084" fill="#D6D6D6"/>
<rect x="146.391" y="8.40625" width="26.22" height="1.12084" fill="#D6D6D6"/>
<rect x="276.305" y="8.40625" width="25.2189" height="1.12084" fill="#D6D6D6"/>
<circle cx="224.185" cy="8.96673" r="8.40631" stroke="#D6D6D6" stroke-width="1.12084"/>
<circle cx="267.338" cy="8.96673" r="8.40631" stroke="#D6D6D6" stroke-width="1.12084"/>
<circle cx="181.576" cy="8.96673" r="8.40631" stroke="#D6D6D6" stroke-width="1.12084"/>
<circle cx="310.49" cy="8.96673" r="8.40631" stroke="#D6D6D6" stroke-width="1.12084"/>
<circle cx="137.967" cy="8.96673" r="8.40631" stroke="#3E2522" stroke-width="1.12084"/>
<circle cx="137.967" cy="8.96714" r="2.8021" fill="#3E2522"/>
</svg>
