<svg width="22" height="22" viewBox="0 0 22 22" fill="none" xmlns="http://www.w3.org/2000/svg">
<path fill-rule="evenodd" clip-rule="evenodd" d="M14.0938 18.4251C13.9313 18.4252 13.7704 18.3931 13.6203 18.3309C13.4702 18.2686 13.334 18.1772 13.2193 18.0621L7.03179 11.8746C6.91683 11.7597 6.82564 11.6232 6.76343 11.4731C6.70121 11.3229 6.66919 11.1619 6.66919 10.9994C6.66919 10.8369 6.70121 10.6759 6.76343 10.5257C6.82564 10.3756 6.91683 10.2391 7.03179 10.1242L13.2193 3.93672C13.3333 3.8178 13.4699 3.72285 13.6211 3.65743C13.7723 3.592 13.935 3.55743 14.0998 3.55573C14.2645 3.55403 14.4279 3.58524 14.5804 3.64753C14.7329 3.70981 14.8715 3.80193 14.9879 3.91846C15.1044 4.035 15.1964 4.17361 15.2585 4.32617C15.3207 4.47874 15.3518 4.64217 15.35 4.80691C15.3481 4.97164 15.3134 5.13435 15.2479 5.28549C15.1824 5.43663 15.0873 5.57317 14.9683 5.68709L9.65666 11.0001L14.9683 16.3117C15.1416 16.4847 15.2597 16.7052 15.3076 16.9454C15.3556 17.1855 15.3312 17.4345 15.2375 17.6608C15.1439 17.887 14.9853 18.0804 14.7817 18.2165C14.5781 18.3526 14.3387 18.4251 14.0938 18.4251Z" fill="#0A0A0A"/>
</svg>
