<svg width="51" height="49" viewBox="0 0 51 49" fill="none" xmlns="http://www.w3.org/2000/svg">
<path fill-rule="evenodd" clip-rule="evenodd" d="M34.5688 8.20407L26.1218 1.48707C25.9451 1.34623 25.7258 1.26953 25.4998 1.26953C25.2738 1.26953 25.0545 1.34623 24.8778 1.48707L16.4298 8.20407C16.1944 8.39135 16.0042 8.62933 15.8735 8.90029C15.7427 9.17126 15.6748 9.46822 15.6748 9.76907V19.1871C15.6748 19.8236 15.9277 20.434 16.3777 20.8841C16.8278 21.3342 17.4383 21.5871 18.0748 21.5871H23.4998V16.8351C23.4998 16.5699 23.6052 16.3155 23.7927 16.128C23.9802 15.9404 24.2346 15.8351 24.4998 15.8351H26.4998C26.765 15.8351 27.0194 15.9404 27.2069 16.128C27.3944 16.3155 27.4998 16.5699 27.4998 16.8351V21.5871H32.9238C33.5603 21.5871 34.1708 21.3342 34.6209 20.8841C35.0709 20.434 35.3238 19.8236 35.3238 19.1871V9.77007C35.3238 9.46922 35.2559 9.17226 35.1251 8.90129C34.9944 8.63033 34.8043 8.39235 34.5688 8.20507" fill="#3E2522"/>
<path d="M10.6709 45.1895H9.37207V32.9053H10.6709V45.1895ZM9.7207 38.8252H6.84277V37.7656H9.7207V38.8252ZM4.55273 36.8496C4.55273 37.7018 4.41146 38.5267 4.12891 39.3242C3.84635 40.1172 3.44987 40.819 2.93945 41.4297C2.42904 42.0404 1.83887 42.5029 1.16895 42.8174L0.451172 41.8125C1.06185 41.5254 1.59961 41.1221 2.06445 40.6025C2.5293 40.083 2.88704 39.4951 3.1377 38.8389C3.3929 38.1826 3.52051 37.5195 3.52051 36.8496V35.8857H4.55273V36.8496ZM4.80566 36.8496C4.80566 37.4922 4.93555 38.1279 5.19531 38.7568C5.45508 39.3812 5.82194 39.944 6.2959 40.4453C6.76986 40.9421 7.31217 41.3294 7.92285 41.6074L7.20508 42.6055C6.52604 42.3001 5.92448 41.8558 5.40039 41.2725C4.88086 40.6846 4.47982 40.0055 4.19727 39.2354C3.91927 38.4652 3.78027 37.6699 3.78027 36.8496V35.8857H4.80566V36.8496ZM7.48535 36.043H0.806641V34.9971H7.48535V36.043ZM4.81934 35.5645H3.52734V33.1514H4.81934V35.5645ZM18.1357 33.165C19.029 33.165 19.8037 33.2585 20.46 33.4453C21.1162 33.6322 21.6198 33.9033 21.9707 34.2588C22.3262 34.6097 22.5039 35.029 22.5039 35.5166C22.5039 35.9997 22.3262 36.4144 21.9707 36.7607C21.6198 37.1025 21.1162 37.3669 20.46 37.5537C19.8037 37.7406 19.029 37.834 18.1357 37.834C17.2471 37.834 16.4723 37.7406 15.8115 37.5537C15.1553 37.3669 14.6471 37.1025 14.2871 36.7607C13.9271 36.4144 13.7471 35.9997 13.7471 35.5166C13.7471 35.029 13.9271 34.6097 14.2871 34.2588C14.6471 33.9033 15.1553 33.6322 15.8115 33.4453C16.4723 33.2585 17.2471 33.165 18.1357 33.165ZM18.1357 34.1904C17.5114 34.1904 16.9691 34.2428 16.5088 34.3477C16.0531 34.4479 15.7021 34.5983 15.4561 34.7988C15.2145 34.9993 15.0938 35.2386 15.0938 35.5166C15.0938 35.79 15.2122 36.0225 15.4492 36.2139C15.6908 36.4053 16.0394 36.5534 16.4951 36.6582C16.9554 36.7585 17.5023 36.8132 18.1357 36.8223C18.7555 36.8132 19.2933 36.7585 19.749 36.6582C20.2093 36.5534 20.5602 36.4053 20.8018 36.2139C21.0479 36.0225 21.1709 35.79 21.1709 35.5166C21.1709 35.2386 21.0479 34.9993 20.8018 34.7988C20.5602 34.5983 20.2093 34.4479 19.749 34.3477C19.2933 34.2428 18.7555 34.1904 18.1357 34.1904ZM22.3604 45.0049H13.8906V40.9238H22.3604V45.0049ZM15.1758 43.9521H21.0889V41.9629H15.1758V43.9521ZM23.7207 39.8369H12.5508V38.7773H23.7207V39.8369ZM30.2354 33.6504C31.0921 33.6504 31.8623 33.7939 32.5459 34.0811C33.234 34.3636 33.7741 34.7646 34.166 35.2842C34.5579 35.7992 34.7539 36.3916 34.7539 37.0615C34.7539 37.736 34.5579 38.3353 34.166 38.8594C33.7741 39.3789 33.234 39.7799 32.5459 40.0625C31.8623 40.3405 31.0921 40.4795 30.2354 40.4795C29.3831 40.4795 28.613 40.3405 27.9248 40.0625C27.2412 39.7799 26.7012 39.3789 26.3047 38.8594C25.9082 38.3353 25.71 37.736 25.71 37.0615C25.71 36.3916 25.9082 35.7969 26.3047 35.2773C26.7012 34.7578 27.2412 34.3568 27.9248 34.0742C28.613 33.7917 29.3831 33.6504 30.2354 33.6504ZM30.2354 34.7031C29.611 34.694 29.0505 34.7897 28.5537 34.9902C28.057 35.1862 27.6673 35.4665 27.3848 35.8311C27.1022 36.1911 26.9609 36.6012 26.9609 37.0615C26.9609 37.5309 27.1022 37.9456 27.3848 38.3057C27.6673 38.6611 28.057 38.9368 28.5537 39.1328C29.0505 39.3288 29.611 39.4268 30.2354 39.4268C30.8551 39.4268 31.4111 39.3288 31.9033 39.1328C32.3955 38.9368 32.7829 38.6611 33.0654 38.3057C33.348 37.9456 33.4893 37.5309 33.4893 37.0615C33.4893 36.6012 33.348 36.1911 33.0654 35.8311C32.7829 35.4665 32.3955 35.1862 31.9033 34.9902C31.4111 34.7897 30.8551 34.694 30.2354 34.7031ZM35.8613 43.5762H24.6504V42.5098H35.8613V43.5762ZM47.9609 43.6924H36.75V42.6191H47.9609V43.6924ZM42.9639 43.0771H41.6924V40.0898H42.9639V43.0771ZM46.5869 37.6016H39.4092V39.9531H38.1172V36.5625H45.3086V34.8398H38.0967V33.7803H46.5869V37.6016ZM46.874 40.459H38.1172V39.3926H46.874V40.459Z" fill="#3E2522"/>
</svg>
