<svg width="20" height="20" viewBox="0 0 20 20" fill="none" xmlns="http://www.w3.org/2000/svg">
<path fill-rule="evenodd" clip-rule="evenodd" d="M3.24997 7.18733C3.24997 6.89983 3.36247 6.61233 3.57497 6.38733C3.7858 6.17742 4.07121 6.05957 4.36872 6.05957C4.66623 6.05957 4.95163 6.17742 5.16247 6.38733L9.99997 11.2248L14.825 6.38733C15.0358 6.17742 15.3212 6.05957 15.6187 6.05957C15.9162 6.05957 16.2016 6.17742 16.4125 6.38733C16.6224 6.59817 16.7402 6.88357 16.7402 7.18108C16.7402 7.4786 16.6224 7.764 16.4125 7.97483L10.7875 13.5998C10.5766 13.8097 10.2912 13.9276 9.99372 13.9276C9.69621 13.9276 9.4108 13.8097 9.19997 13.5998L3.57497 7.97483C3.36247 7.76233 3.24997 7.47483 3.24997 7.18733Z" fill="#0A0A0A"/>
</svg>
