<svg width="14" height="14" viewBox="0 0 14 14" fill="none" xmlns="http://www.w3.org/2000/svg">
<path fill-rule="evenodd" clip-rule="evenodd" d="M1.30254 6.13602C0.965888 6.13602 0.643028 6.26975 0.404982 6.5078C0.166936 6.74585 0.0332031 7.0687 0.0332031 7.40535V12.73C0.0332031 13.4314 0.601203 14 1.30254 14H2.5892V6.13602H1.30254ZM11.6085 4.66469H8.58054V1.82402C8.58068 1.56913 8.49668 1.32132 8.34157 1.11905C8.18645 0.916794 7.9689 0.771398 7.72269 0.705438C7.47648 0.639478 7.21538 0.656644 6.97993 0.754271C6.74447 0.851898 6.54783 1.02452 6.42054 1.24535L3.59654 6.13602H3.5892V14H9.7452C10.3128 14 10.864 13.8099 11.3109 13.4599C11.7577 13.11 12.0745 12.6204 12.2105 12.0694L13.4572 7.02669C13.5266 6.74612 13.5312 6.45344 13.4708 6.17081C13.4103 5.88819 13.2863 5.62303 13.1081 5.39543C12.93 5.16783 12.7024 4.98376 12.4426 4.85715C12.1828 4.73055 11.8976 4.66473 11.6085 4.66469" fill="#0A0A0A"/>
</svg>
