<svg width="24" height="24" viewBox="0 0 24 24" fill="none" xmlns="http://www.w3.org/2000/svg">
<path fill-rule="evenodd" clip-rule="evenodd" d="M12.45 4.90293C12.3202 4.80556 12.1623 4.75293 12 4.75293C11.8377 4.75293 11.6798 4.80556 11.55 4.90293L5.05 9.77793C4.95685 9.84779 4.88125 9.93838 4.82918 10.0425C4.77711 10.1467 4.75 10.2615 4.75 10.3779V18.4999C4.75 18.9139 5.086 19.2499 5.5 19.2499H9V16.9999C9 16.2043 9.31607 15.4412 9.87868 14.8786C10.4413 14.316 11.2044 13.9999 12 13.9999C12.7956 13.9999 13.5587 14.316 14.1213 14.8786C14.6839 15.4412 15 16.2043 15 16.9999V19.2499H18.5C18.6989 19.2499 18.8897 19.1709 19.0303 19.0303C19.171 18.8896 19.25 18.6988 19.25 18.4999V10.3779C19.25 10.2615 19.2229 10.1467 19.1708 10.0425C19.1187 9.93838 19.0431 9.84779 18.95 9.77793L12.45 4.90293ZM10.65 3.70293C11.45 3.10293 12.55 3.10293 13.35 3.70293L19.85 8.57793C20.417 9.00293 20.75 9.66993 20.75 10.3779V18.4999C20.75 19.0967 20.5129 19.669 20.091 20.0909C19.669 20.5129 19.0967 20.7499 18.5 20.7499H14.25C14.0511 20.7499 13.8603 20.6709 13.7197 20.5303C13.579 20.3896 13.5 20.1988 13.5 19.9999V16.9999C13.5 16.6021 13.342 16.2206 13.0607 15.9393C12.7794 15.658 12.3978 15.4999 12 15.4999C11.6022 15.4999 11.2206 15.658 10.9393 15.9393C10.658 16.2206 10.5 16.6021 10.5 16.9999V19.9999C10.5 20.1988 10.421 20.3896 10.2803 20.5303C10.1397 20.6709 9.94891 20.7499 9.75 20.7499H5.5C4.90326 20.7499 4.33097 20.5129 3.90901 20.0909C3.48705 19.669 3.25 19.0967 3.25 18.4999V10.3779C3.25 9.66993 3.583 9.00293 4.15 8.57793L10.65 3.70293Z" fill="#0A0A0A"/>
</svg>
