<svg width="14" height="9" viewBox="0 0 14 9" fill="none" xmlns="http://www.w3.org/2000/svg">
<path fill-rule="evenodd" clip-rule="evenodd" d="M0.249969 1.68733C0.249969 1.39983 0.362469 1.11233 0.574969 0.887334C0.785804 0.677421 1.07121 0.55957 1.36872 0.55957C1.66623 0.55957 1.95163 0.677421 2.16247 0.887334L6.99997 5.72483L11.825 0.887334C12.0358 0.677421 12.3212 0.55957 12.6187 0.55957C12.9162 0.55957 13.2016 0.677421 13.4125 0.887334C13.6224 1.09817 13.7402 1.38357 13.7402 1.68108C13.7402 1.9786 13.6224 2.264 13.4125 2.47483L7.78747 8.09983C7.57664 8.30975 7.29123 8.4276 6.99372 8.4276C6.69621 8.4276 6.4108 8.30975 6.19997 8.09983L0.574969 2.47483C0.362469 2.26233 0.249969 1.97483 0.249969 1.68733Z" fill="#0A0A0A"/>
</svg>
