<svg width="22" height="22" viewBox="0 0 22 22" fill="none" xmlns="http://www.w3.org/2000/svg">
<path d="M20.1666 6.63684C20.1673 6.5162 20.1442 6.39661 20.0986 6.28493C20.0529 6.17325 19.9857 6.07166 19.9008 5.98601L16.0141 2.09934C15.9284 2.01439 15.8269 1.94717 15.7152 1.90155C15.6035 1.85594 15.4839 1.83281 15.3633 1.83351C15.2426 1.83281 15.123 1.85594 15.0114 1.90155C14.8997 1.94717 14.7981 2.01439 14.7124 2.09934L12.1183 4.69351L2.0991 14.7127C2.01414 14.7983 1.94693 14.8999 1.90131 15.0116C1.85569 15.1233 1.83257 15.2429 1.83327 15.3635V19.2502C1.83327 19.4933 1.92984 19.7265 2.10175 19.8984C2.27366 20.0703 2.50682 20.1668 2.74993 20.1668H6.6366C6.76487 20.1738 6.89317 20.1538 7.01319 20.108C7.1332 20.0622 7.24225 19.9917 7.33327 19.901L17.2974 9.88184L19.9008 7.33351C19.9843 7.24456 20.0525 7.14233 20.1024 7.03101C20.1113 6.95794 20.1113 6.88408 20.1024 6.81101C20.1067 6.76834 20.1067 6.72535 20.1024 6.68268L20.1666 6.63684ZM6.26077 18.3335H3.6666V15.7393L12.7691 6.63684L15.3633 9.23101L6.26077 18.3335ZM16.6558 7.93851L14.0616 5.34434L15.3633 4.05184L17.9483 6.63684L16.6558 7.93851Z" fill="#0A0A0A"/>
</svg>
