<svg width="14" height="16" viewBox="0 0 14 16" fill="none" xmlns="http://www.w3.org/2000/svg">
<path fill-rule="evenodd" clip-rule="evenodd" d="M13.0529 3.54001L7.65955 0.426676C7.55533 0.366581 7.43714 0.334952 7.31683 0.334961C7.19653 0.33497 7.07834 0.366616 6.97413 0.426726C6.86992 0.486835 6.78335 0.573293 6.7231 0.677426C6.66285 0.781559 6.63105 0.899704 6.63088 1.02001V1.98001C6.63103 2.5816 6.47276 3.17262 6.17199 3.69363C5.87123 4.21464 5.43858 4.64727 4.91755 4.94801L0.948885 7.24001C0.84463 7.30014 0.758049 7.38666 0.69785 7.49088C0.637651 7.59509 0.605957 7.71332 0.605957 7.83368C0.605957 7.95403 0.637651 8.07226 0.69785 8.17647C0.758049 8.28069 0.84463 8.36721 0.948885 8.42734L4.54555 10.5033C4.51422 10.54 4.47622 10.5673 4.45222 10.61L2.14822 14.6C2.04671 14.7834 2.02125 14.9994 2.07734 15.2014C2.13343 15.4034 2.26657 15.5753 2.44811 15.6802C2.62966 15.785 2.84511 15.8144 3.04811 15.762C3.2511 15.7096 3.42542 15.5796 3.53355 15.4L5.83755 11.4107C5.86222 11.3673 5.86688 11.3207 5.88222 11.276L9.47955 13.352C9.58372 13.4122 9.70189 13.4438 9.82217 13.4438C9.94246 13.4438 10.0606 13.4122 10.1648 13.3521C10.269 13.2919 10.3555 13.2054 10.4157 13.1013C10.4758 12.9971 10.5075 12.879 10.5076 12.7587V8.17601C10.5076 6.95134 11.1602 5.82001 12.2209 5.20801L13.0529 4.72801C13.1573 4.66792 13.244 4.58138 13.3043 4.4771C13.3646 4.37281 13.3964 4.25447 13.3964 4.13401C13.3964 4.01354 13.3646 3.89521 13.3043 3.79092C13.244 3.68664 13.1573 3.60009 13.0529 3.54001" fill="#0A0A0A"/>
</svg>
