<svg width="40" height="40" viewBox="0 0 40 40" fill="none" xmlns="http://www.w3.org/2000/svg">
<path fill-rule="evenodd" clip-rule="evenodd" d="M34.8255 20.5984C34.3072 20.5081 33.7743 20.6274 33.344 20.93C32.9136 21.2326 32.6211 21.6937 32.5307 22.212C32.0159 25.1695 30.4724 27.8498 28.1728 29.7794C25.8732 31.7089 22.9656 32.7636 19.9637 32.757C12.9304 32.757 7.20823 27.0348 7.20823 19.9998C7.20823 12.9666 12.9304 7.24438 19.9637 7.24438C23.1612 7.24438 26.1687 8.42486 28.5197 10.5577L26.8796 12.1978C26.665 12.4115 26.514 12.6806 26.4432 12.9751C26.3725 13.2696 26.3848 13.5779 26.4789 13.8658C26.573 14.1537 26.7451 14.4098 26.9761 14.6057C27.2071 14.8016 27.4879 14.9296 27.7873 14.9754L34.7511 16.05C35.0055 16.0892 35.2656 16.0679 35.5102 15.9878C35.7548 15.9076 35.977 15.7709 36.1589 15.5887C36.3407 15.4065 36.4771 15.184 36.5568 14.9393C36.6365 14.6945 36.6574 14.4344 36.6177 14.1801L35.5447 7.21793C35.4986 6.91874 35.3705 6.63818 35.1747 6.40737C34.9788 6.17655 34.7228 6.00451 34.4351 5.91033C34.1475 5.81614 33.8393 5.8035 33.5449 5.8738C33.2504 5.9441 32.9812 6.0946 32.7671 6.30859L31.3254 7.75195C28.2441 4.87121 24.1819 3.27106 19.9637 3.27638C10.7431 3.27638 3.24023 10.7792 3.24023 19.9998C3.24023 29.2221 10.7431 36.7233 19.9637 36.7233C28.1113 36.7233 35.0388 30.9069 36.4392 22.8932C36.5294 22.3749 36.4101 21.842 36.1075 21.4116C35.8049 20.9813 35.3438 20.6888 34.8255 20.5984" fill="#FFFFFC"/>
</svg>
