<svg width="36" height="36" viewBox="0 0 36 36" fill="none" xmlns="http://www.w3.org/2000/svg">
<path fill-rule="evenodd" clip-rule="evenodd" d="M5.80125 16.1988H26.8553L18.6788 8.02234C17.9753 7.31884 17.9753 6.17884 18.6788 5.47684C19.3823 4.77334 20.5208 4.77334 21.2243 5.47684L32.4743 16.7268C32.4788 16.7298 32.4803 16.7358 32.4848 16.7403C32.6453 16.9038 32.7743 17.0973 32.8628 17.3103C33.0457 17.7513 33.0457 18.2463 32.8628 18.6873C32.7743 18.9018 32.6453 19.0938 32.4848 19.2573C32.4803 19.2618 32.4788 19.2678 32.4743 19.2723L21.2243 30.5223C20.8733 30.8733 20.4128 31.0488 19.9523 31.0488C19.4903 31.0488 19.0298 30.8733 18.6788 30.5223C17.9753 29.8188 17.9753 28.6788 18.6788 27.9768L26.8553 19.7988H5.80125C4.80675 19.7988 4.00125 18.9933 4.00125 17.9988C4.00125 17.0058 4.80675 16.1988 5.80125 16.1988Z" fill="#FFFFFC"/>
</svg>
