<svg width="20" height="20" viewBox="0 0 20 20" fill="none" xmlns="http://www.w3.org/2000/svg">
<path d="M18.2075 16.7924L14.3683 12.9532C15.2725 11.7549 15.815 10.2699 15.815 8.65652C15.815 4.70986 12.6033 1.49902 8.6575 1.49902C4.71083 1.49986 1.5 4.71069 1.5 8.65736C1.5 12.6032 4.71083 15.8149 8.6575 15.8149C10.27 15.8149 11.7558 15.2724 12.9542 14.3682L16.7933 18.2074C16.9883 18.4024 17.2442 18.4999 17.5 18.4999C17.7558 18.4999 18.0117 18.4024 18.2075 18.2065C18.5975 17.8165 18.5975 17.1832 18.2075 16.7924ZM3.5 8.65736C3.5 5.81319 5.81333 3.49986 8.6575 3.49986C11.5008 3.49986 13.8142 5.81319 13.8142 8.65652C13.8142 11.4999 11.5008 13.8132 8.6575 13.8132C5.81333 13.814 3.5 11.5007 3.5 8.65736Z" fill="#0A0A0A"/>
</svg>
