<svg width="20" height="20" viewBox="0 0 20 20" fill="none" xmlns="http://www.w3.org/2000/svg">
<path fill-rule="evenodd" clip-rule="evenodd" d="M16.75 12.8127C16.75 13.1002 16.6375 13.3877 16.425 13.6127C16.2142 13.8226 15.9288 13.9404 15.6313 13.9404C15.3338 13.9404 15.0484 13.8226 14.8375 13.6127L10 8.77517L5.17503 13.6127C4.96419 13.8226 4.67879 13.9404 4.38128 13.9404C4.08377 13.9404 3.79836 13.8226 3.58753 13.6127C3.37762 13.4018 3.25977 13.1164 3.25977 12.8189C3.25977 12.5214 3.37762 12.236 3.58753 12.0252L9.21253 6.40017C9.42336 6.19025 9.70877 6.0724 10.0063 6.0724C10.3038 6.0724 10.5892 6.19025 10.8 6.40017L16.425 12.0252C16.6375 12.2377 16.75 12.5252 16.75 12.8127Z" fill="#0A0A0A"/>
</svg>
