<svg width="20" height="20" viewBox="0 0 20 20" fill="none" xmlns="http://www.w3.org/2000/svg">
<mask id="path-1-inside-1_735_4792" fill="white">
<path fill-rule="evenodd" clip-rule="evenodd" d="M14.0726 5.53676C14.0726 6.07244 13.9672 6.60289 13.7622 7.09782C13.5573 7.59275 13.2568 8.04246 12.8781 8.42129C12.4993 8.80011 12.0497 9.10063 11.5548 9.30567C11.0599 9.51072 10.5295 9.61629 9.99381 9.61634C8.91195 9.61645 7.87435 9.18679 7.10928 8.42188C6.34421 7.65696 5.91434 6.61945 5.91423 5.53759C5.91417 5.00191 6.01963 4.47146 6.22458 3.97653C6.42952 3.4816 6.72995 3.03189 7.10869 2.65306C7.87361 1.88799 8.91112 1.45812 9.99298 1.45801C11.0748 1.4579 12.1124 1.88756 12.8775 2.65247C13.6426 3.41739 14.0725 4.4549 14.0726 5.53676ZM9.99339 10.8643C4.11923 10.8643 1.83423 14.6026 1.83423 16.3418C1.83423 18.0801 6.69839 18.5434 9.99339 18.5434C13.2884 18.5434 18.1526 18.0801 18.1526 16.3418C18.1526 14.6026 15.8676 10.8643 9.99339 10.8643Z"/>
</mask>
<path d="M11.5548 9.30567L10.9168 7.76594L11.5548 9.30567ZM9.99381 9.61634L9.99398 11.283L9.99381 9.61634ZM5.91423 5.53759L7.5809 5.53742L5.91423 5.53759ZM7.10869 2.65306L5.93006 1.47467V1.47467L7.10869 2.65306ZM12.4059 5.53693C12.4059 5.85374 12.3436 6.16746 12.2223 6.46017L15.3021 7.73547C15.5908 7.03832 15.7393 6.29114 15.7392 5.53659L12.4059 5.53693ZM12.2223 6.46017C12.1011 6.75288 11.9235 7.01885 11.6995 7.2429L14.0567 9.59968C14.5902 9.06607 15.0134 8.43262 15.3021 7.73547L12.2223 6.46017ZM11.6995 7.2429C11.4755 7.46694 11.2095 7.64467 10.9168 7.76594L12.1928 10.8454C12.8899 10.5566 13.5232 10.1333 14.0567 9.59968L11.6995 7.2429ZM10.9168 7.76594C10.6242 7.88721 10.3105 7.94964 9.99364 7.94967L9.99398 11.283C10.7485 11.2829 11.4957 11.1342 12.1928 10.8454L10.9168 7.76594ZM9.99364 7.94967C9.35381 7.94974 8.74015 7.69563 8.28767 7.24324L5.93089 9.60051C7.00856 10.6779 8.47009 11.2832 9.99398 11.283L9.99364 7.94967ZM8.28767 7.24324C7.8352 6.79086 7.58096 6.17726 7.5809 5.53742L4.24756 5.53776C4.24772 7.06165 4.85323 8.52306 5.93089 9.60051L8.28767 7.24324ZM7.5809 5.53742C7.58086 5.22061 7.64323 4.90689 7.76444 4.61418L4.68471 3.33888C4.39603 4.03603 4.24748 4.78321 4.24756 5.53776L7.5809 5.53742ZM7.76444 4.61418C7.88565 4.32147 8.06333 4.0555 8.28733 3.83145L5.93006 1.47467C5.39657 2.00828 4.9734 2.64174 4.68471 3.33888L7.76444 4.61418ZM8.28733 3.83145C8.73971 3.37898 9.35331 3.12474 9.99315 3.12467L9.99281 -0.208659C8.46892 -0.208503 7.0075 0.397009 5.93006 1.47467L8.28733 3.83145ZM9.99315 3.12467C10.633 3.12461 11.2466 3.37872 11.6991 3.8311L14.0559 1.47384C12.9782 0.396399 11.5167 -0.208815 9.99281 -0.208659L9.99315 3.12467ZM11.6991 3.8311C12.1516 4.28349 12.4058 4.89709 12.4059 5.53693L15.7392 5.53659C15.7391 4.0127 15.1336 2.55129 14.0559 1.47384L11.6991 3.8311ZM9.99339 9.19759C3.40084 9.19759 0.167562 13.4923 0.167562 16.3418H3.5009C3.5009 15.7129 4.83762 12.5309 9.99339 12.5309V9.19759ZM0.167562 16.3418C0.167562 17.6809 1.12817 18.4744 1.82339 18.8688C2.55596 19.2844 3.46687 19.5478 4.34406 19.7273C6.12869 20.0925 8.2944 20.2101 9.99339 20.2101V16.8768C8.39739 16.8768 6.48352 16.7627 5.01232 16.4616C4.26159 16.308 3.75051 16.1297 3.46809 15.9695C3.14831 15.7881 3.5009 15.8718 3.5009 16.3418H0.167562ZM9.99339 20.2101C11.6924 20.2101 13.8581 20.0925 15.6427 19.7273C16.5199 19.5478 17.4308 19.2844 18.1634 18.8688C18.8586 18.4744 19.8192 17.6809 19.8192 16.3418H16.4859C16.4859 15.8718 16.8385 15.7881 16.5187 15.9695C16.2363 16.1297 15.7252 16.308 14.9745 16.4616C13.5033 16.7627 11.5894 16.8768 9.99339 16.8768V20.2101ZM19.8192 16.3418C19.8192 13.4923 16.5859 9.19759 9.99339 9.19759V12.5309C15.1492 12.5309 16.4859 15.7129 16.4859 16.3418H19.8192Z" fill="#0A0A0A" mask="url(#path-1-inside-1_735_4792)"/>
</svg>
