<svg width="168" height="50" viewBox="0 0 168 50" fill="none" xmlns="http://www.w3.org/2000/svg">
<path fill-rule="evenodd" clip-rule="evenodd" d="M3.81818 4.27295C1.70946 4.27295 0 5.98241 0 8.09113V42.4548C0 44.5635 1.70946 46.2729 3.81818 46.2729H22.9091C33.4527 46.2729 42 37.7257 42 27.182V23.3639C42 12.8202 33.4527 4.27295 22.9091 4.27295H3.81818ZM20.4272 20.5005C18.1076 20.5005 16.2272 22.3809 16.2272 24.7005V25.655C16.2272 27.9746 18.1076 29.855 20.4272 29.855H21.3818C23.7014 29.855 25.5818 27.9746 25.5818 25.655V24.7005C25.5818 22.3809 23.7014 20.5005 21.3818 20.5005H20.4272Z" fill="#3E2522"/>
<path fill-rule="evenodd" clip-rule="evenodd" d="M87.8182 4.27295C85.7095 4.27295 84 5.98241 84 8.09113V42.4548C84 44.5635 85.7095 46.2729 87.8182 46.2729H106.909C117.453 46.2729 126 37.7257 126 27.182V23.3639C126 12.8202 117.453 4.27295 106.909 4.27295H87.8182ZM104.427 20.5005C102.108 20.5005 100.227 22.3809 100.227 24.7005V25.655C100.227 27.9746 102.108 29.855 104.427 29.855H105.382C107.701 29.855 109.582 27.9746 109.582 25.655V24.7005C109.582 22.3809 107.701 20.5005 105.382 20.5005H104.427Z" fill="#66553B"/>
<path fill-rule="evenodd" clip-rule="evenodd" d="M145.091 4.27295C134.547 4.27295 126 12.8202 126 23.3639V27.182C126 37.7257 134.547 46.2729 145.091 46.2729H148.909C159.453 46.2729 168 37.7257 168 27.182V23.3639C168 12.8202 159.453 4.27295 148.909 4.27295H145.091ZM146.427 20.5005C144.108 20.5005 142.227 22.3809 142.227 24.7005V25.655C142.227 27.9746 144.108 29.855 146.427 29.855H147.382C149.701 29.855 151.582 27.9746 151.582 25.655V24.7005C151.582 22.3809 149.701 20.5005 147.382 20.5005H146.427Z" fill="#99815F"/>
<path d="M43.0817 17.3018L84.4436 24.595L83.3496 30.7993C81.5187 41.1827 71.6171 48.1159 61.2336 46.285L57.4735 45.622C47.09 43.7911 40.1568 33.8895 41.9877 23.506L43.0817 17.3018Z" fill="#CCB086"/>
<path d="M70.6838 9.18107C71.05 7.10438 73.0303 5.71774 75.107 6.08392L83.5674 7.57571C85.6441 7.94189 87.0307 9.92222 86.6645 11.9989L84.3528 25.1096L68.372 22.2917L70.6838 9.18107Z" fill="#CCB086"/>
<path d="M45.3027 4.70549C45.6689 2.6288 47.6492 1.24216 49.7259 1.60833L57.9983 3.06698C60.0749 3.43315 61.4616 5.41349 61.0954 7.49017L58.6564 21.3225L42.8637 18.5378L45.3027 4.70549Z" fill="#CCB086"/>
<rect x="60.2336" y="12.3784" width="9.73636" height="14.3182" rx="4.00909" transform="rotate(10 60.2336 12.3784)" fill="#FFFFFC"/>
</svg>
