<svg width="248" height="48" viewBox="0 0 248 48" fill="none" xmlns="http://www.w3.org/2000/svg">
<g clip-path="url(#clip0_351_2790)">
<path d="M241.526 0.0961914H6.47395C3.17355 0.0961914 0.498047 2.77169 0.498047 6.07209V41.9275C0.498047 45.2279 3.17355 47.9034 6.47395 47.9034H241.526C244.827 47.9034 247.502 45.2279 247.502 41.9275V6.07209C247.502 2.77169 244.827 0.0961914 241.526 0.0961914Z" fill="#FEE500"/>
<path fill-rule="evenodd" clip-rule="evenodd" d="M47.887 17.0283C43.6969 17.0283 40.2986 19.7145 40.2986 23.0281C40.2986 25.1844 41.7388 27.0748 43.8991 28.1325C43.7397 28.7252 43.3244 30.2789 43.2417 30.6116C43.1381 31.0239 43.3911 31.0189 43.5584 30.9074C43.6889 30.8207 45.6381 29.496 46.4797 28.9234C46.9358 28.9911 47.4059 29.0269 47.888 29.0269C52.0791 29.0269 55.4774 26.3408 55.4774 23.0281C55.4774 19.7145 52.0781 17.0283 47.887 17.0283Z" fill="#1F1F1F"/>
<path d="M70.5196 18.4146H64.9421V19.7672H68.8045C68.7605 20.2851 68.6719 20.7983 68.5396 21.301L64.3285 21.6077C64.4122 22.0818 64.4819 22.542 64.5516 23.0161L67.9958 22.6396C67.1452 24.271 65.7229 25.5538 63.9939 26.3486L64.9979 27.5059C68.7069 25.5817 70.5196 22.5977 70.5196 18.4146ZM73.8661 17.1597H72.2486V29.5836H73.8661V23.281H75.6091V21.9284H73.8661V17.1597ZM82.1855 18.4146H76.608V19.7672H80.4705C80.4264 20.2851 80.3378 20.7983 80.2055 21.301L75.9945 21.6077C76.0782 22.0818 76.1479 22.542 76.2176 23.0161L79.6617 22.6396C78.8112 24.271 77.3889 25.5538 75.6599 26.3486L76.6638 27.5059C80.3729 25.5817 82.1855 22.5977 82.1855 18.4146ZM85.532 17.1597H83.9146V29.5836H85.532V23.281H87.275V21.9284H85.532V17.1597ZM98.7189 28.0358V26.739H93.9083V24.759C96.209 24.522 97.6731 23.1834 97.6731 21.3567C97.6731 19.3488 95.8743 17.9405 93.1135 17.9405C90.3666 17.9405 88.5539 19.3488 88.5539 21.3567C88.5539 23.1694 90.004 24.4941 92.2769 24.759V26.739H87.4941V28.0358H98.7189ZM96.0277 21.3707C96.0277 22.6256 94.8704 23.4623 93.1135 23.4623C91.3566 23.4623 90.2132 22.6256 90.2132 21.3707C90.2132 20.1297 91.3566 19.2791 93.1135 19.2791C94.8843 19.2791 96.0277 20.1297 96.0277 21.3707ZM109.325 24.8009V23.4901H102.214V21.9842H108.963V17.9545H100.527V19.2512H107.345V20.6874H100.596V24.8009H103.929V26.739H99.1601V28.0358H110.385V26.739H105.56V24.8009H109.325ZM116.963 28.0498C119.139 28.0498 120.491 26.9482 120.491 25.1913C120.491 23.769 119.654 23.0858 118.455 22.8487C119.501 22.4862 120.17 21.7611 120.17 20.6177C120.17 19.0839 118.971 18.2473 117.2 18.2473C116.266 18.2473 115.109 18.5122 114.523 18.8469L114.718 20.1157C115.29 19.8508 116.043 19.6138 116.754 19.6138C117.8 19.6138 118.455 19.9624 118.455 20.9245C118.455 21.8169 117.716 22.3189 116.615 22.3468L115.736 22.3607V23.6017L116.726 23.6296C117.939 23.6435 118.706 24.0618 118.706 25.0797C118.706 26.1534 117.953 26.6833 116.67 26.6833C115.959 26.6833 114.928 26.4462 114.439 26.1395L114.161 27.3805C114.704 27.729 115.82 28.0498 116.963 28.0498ZM132.044 23.6714C130.274 23.5599 128.126 22.4165 127.68 20.9663H131.361V19.6695H122.186V20.9663H125.909C125.477 22.4304 123.399 23.532 121.517 23.6993L122.158 24.9961C124.027 24.6893 126.104 23.5738 126.774 22.2491C127.443 23.5459 129.576 24.7032 131.361 24.9821L132.044 23.6714ZM132.393 28.0358V26.753H127.569V24.3128H125.937V26.753H121.168V28.0358H132.393ZM124.71 18.819H128.837V17.5222H124.71V18.819ZM145.818 17.1597H144.159V26.1673H145.818V22.0539H147.589V20.7014H145.818V17.1597ZM146.111 29.221V27.9243H139.39V25.2471H137.758V29.221H146.111ZM142.276 23.9642V18.1078H136.462V23.9642H142.276ZM140.659 22.6814H138.079V19.3767H140.659V22.6814ZM155.853 29.0119V17.3967H154.319V21.8866H153.259C153.12 19.8648 152.325 18.0939 150.568 18.0939C148.658 18.0939 147.891 20.2691 147.891 22.528C147.891 24.8148 148.658 27.004 150.568 27.004C152.311 27.004 153.12 25.2331 153.259 23.2252H154.319V29.0119H155.853ZM158.335 29.5836V17.1597H156.801V29.5836H158.335ZM151.767 22.542C151.767 24.2013 151.418 25.5538 150.582 25.5538C149.773 25.5538 149.424 24.2013 149.424 22.542C149.424 20.8827 149.773 19.5162 150.582 19.5162C151.418 19.5162 151.767 20.8827 151.767 22.542ZM172.972 29.5836V17.1597H171.341V29.5836H172.972ZM170.407 25.5399C168.524 24.3268 167.534 22.4722 167.534 20.0181V18.2055H165.847V20.1018C165.847 22.5699 164.774 24.5359 162.766 25.8327L163.756 27.0319C165.038 26.3347 166.321 24.759 166.726 23.3368C167.144 24.6335 168.441 26.1395 169.459 26.7669L170.407 25.5399ZM174.515 19.2791H177.011C176.928 21.0779 175.756 22.4165 174.027 23.0439L174.989 24.3128C176.189 23.9085 177.499 22.7232 177.862 21.5241C178.406 22.6675 179.605 23.6017 180.567 23.9782L181.459 22.6814C180.079 22.2352 178.824 21.05 178.684 19.2791H181.055V17.9545H174.515V19.2791ZM175.924 25.024V26.3207H182.449V29.5975H184.095V25.024H175.924ZM185.852 21.4404V20.1018H184.081V17.1597H182.435V24.3965H184.081V21.4404H185.852ZM193.182 21.4125V20.1157H185.973V21.4125H193.182ZM187.716 19.2512H191.551V17.9684H187.716V19.2512ZM195.748 17.1597H194.102V29.5836H195.748V23.5459H197.477V22.1934H195.748V17.1597ZM186.587 24.522C186.587 26.0976 187.8 27.1992 189.584 27.1992C191.369 27.1992 192.582 26.0419 192.582 24.522C192.582 22.9603 191.369 21.8448 189.584 21.8448C187.8 21.8448 186.587 23.0021 186.587 24.522ZM188.176 24.522C188.176 23.6993 188.776 23.1555 189.584 23.1555C190.393 23.1555 190.993 23.6993 190.993 24.522C190.993 25.3307 190.491 25.8745 189.584 25.8745C188.762 25.8745 188.176 25.3307 188.176 24.522ZM207.971 29.5836V17.1597H206.34V29.5836H207.971ZM204.151 18.4564H198.35V19.809H202.394C202.171 22.277 200.316 24.8706 197.597 26.1116L198.601 27.3386C202.394 25.2749 204.053 22.2073 204.151 18.4564Z" fill="#1F1F1F"/>
</g>
<defs>
<clipPath id="clip0_351_2790">
<rect width="248" height="48" fill="white"/>
</clipPath>
</defs>
</svg>
